<svg xmlns="http://www.w3.org/2000/svg" width="16" height="16" fill="currentColor" class="bi bi-arrow-down-up" viewBox="0 0 512 512">
  <path fill-rule="evenodd" d="M239.6 373.1c11.94-13.05 11.06-33.31-1.969-45.27c-13.55-12.42-33.76-10.52-45.22 1.973L160 366.1V64.03c0-17.7-14.33-32.03-32-32.03S96 46.33 96 64.03v302l-32.4-35.39C51.64 317.7 31.39 316.7 18.38 328.7c-13.03 11.95-13.9 32.22-1.969 45.27l87.1 96.09c12.12 13.26 35.06 13.26 47.19 0L239.6 373.1z"/>
  <path fill-rule="evenodd" d="M239.6 373.1c11.94-13.05 11.06-33.31-1.969-45.27c-13.55-12.42-33.76-10.52-45.22 1.973L160 366.1V64.03c0-17.7-14.33-32.03-32-32.03S96 46.33 96 64.03v302l-32.4-35.39C51.64 317.7 31.39 316.7 18.38 328.7c-13.03 11.95-13.9 32.22-1.969 45.27l87.1 96.09c12.12 13.26 35.06 13.26 47.19 0L239.6 373.1z" transform="rotate(180 256 256)"/>
</svg>
